# ProBuilder 6.0.9
# https://unity3d.com/unity/features/worldbuilding/probuilder
# 20-06-2026 16:23:52

mtllib ./Arch.mtl
o Arch

g Arch
v -67.70189 -0.8999995 -7.826602
v -67.70189 -0.8999995 -6.826602
v -66.70189 -0.8999995 -7.826602
v -66.70189 -0.8999995 -6.826602
v -66.70189 2.832056 -7.807521
v -67.70189 2.832056 -7.807521
v -66.70189 2.449372 -6.539852
v -67.70189 2.449372 -6.539853
v -66.70189 9.731778 -7.795231
v -67.70189 9.731778 -7.795231
v -66.70189 5.288832 -5.723258
v -67.70189 5.288832 -5.723258
v -66.70189 9.864867 -7.031304
v -67.70189 9.864867 -7.031304
v -66.70189 6.004678 -4.50114
v -67.70189 6.004678 -4.50114
v -66.70189 10.60722 -3.017267
v -67.70189 10.60722 -3.017268
v -66.70189 6.670911 -3.05955
v -67.70189 6.670911 -3.05955
v -66.70189 9.864869 0.9883506
v -67.70189 9.864869 0.9883505
v -66.70189 6.00468 -1.617961
v -67.70189 6.00468 -1.617961
v -66.70189 9.731778 1.69424
v -67.70189 9.731778 1.69424
v -66.70189 5.288832 -0.395842
v -67.70189 5.288832 -0.3958421
v -66.70189 2.832056 1.742761
v -67.70189 2.832056 1.742761
v -66.70189 2.449373 0.4207522
v -67.70189 2.449373 0.4207521
v -66.70189 -0.9000005 1.707502
v -67.70189 -0.9000005 1.707502
v -66.70189 -0.9000005 0.7075021
v -67.70189 -0.9000005 0.7075019

vt -7.534103 0.5
vt -6.534103 0.5
vt -7.534103 -0.5
vt -6.534103 -0.5
vt -0.5 -1.038506
vt -0.5 2.693598
vt 0.5 -1.038506
vt 0.5 2.693598
vt 0.5 1.807904
vt 0.5 -1.55372
vt -0.5 1.807904
vt -0.5 -1.55372
vt -0.5 2.718665
vt -0.4999987 9.618398
vt 0.5 2.718665
vt 0.5000014 9.618398
vt 0.5 3.485729
vt 0.5 0.5311797
vt -0.5 3.485729
vt -0.5 0.5311797
vt 5.738279 -0.4999987
vt 4.962846 -0.4999988
vt 5.738279 0.5000014
vt 4.962846 0.5000013
vt -0.6471767 -0.5
vt -2.063513 -0.5
vt -0.6471767 0.5
vt -2.063513 0.5
vt 4.850645 -0.4999988
vt 0.76854 -0.4999993
vt 4.850645 0.5000013
vt 0.7685405 0.5000008
vt 0.2448273 -0.5
vt -1.343268 -0.5
vt 0.2448273 0.5
vt -1.343268 0.5
vt 4.59382 -0.5000002
vt 0.5199946 -0.5000007
vt 4.59382 0.4999999
vt 0.5199946 0.4999994
vt -3.680295 -0.5
vt -5.26839 -0.5
vt -3.680295 0.5
vt -5.26839 0.5
vt 0.5505555 -0.4999998
vt -0.167771 -0.4999999
vt 0.5505555 0.5000003
vt -0.167771 0.5000002
vt -2.711721 -0.5
vt -4.128058 -0.5
vt -2.711721 0.5
vt -4.128058 0.5
vt 0.4999999 9.617568
vt 0.5 2.717676
vt -0.5000002 9.617568
vt -0.5 2.717676
vt -0.5 2.060725
vt -0.5 5.015274
vt 0.5 2.060725
vt 0.5 5.015274
vt 0.5 2.751162
vt 0.5 -0.9810613
vt -0.5 2.751162
vt -0.5 -0.9810613
vt -0.5 -1.081657
vt -0.5 2.279969
vt 0.5 -1.081657
vt 0.5 2.279969
vt 1 0.5
vt 2 0.5
vt 1 -0.5
vt 2 -0.5
vt -7.534103 -0.9999995
vt -7.515022 2.732056
vt -6.534103 -0.9999995
vt -6.247354 2.349372
vt 7.515022 2.732056
vt 7.534103 -0.9999995
vt 6.247354 2.349372
vt 6.534103 -0.9999995
vt -7.502732 9.631778
vt -5.430759 5.188832
vt 7.502732 9.631778
vt 5.430759 5.188832
vt -6.738805 9.764867
vt -4.208641 5.904678
vt 6.738805 9.764867
vt 4.208641 5.904678
vt -2.724769 10.50722
vt -2.767052 6.570911
vt 2.724769 10.50722
vt 2.767052 6.570911
vt 1.280849 9.764869
vt -1.325462 5.90468
vt -1.280849 9.764869
vt 1.325462 5.90468
vt 1.986738 9.631778
vt -0.103344 5.188832
vt -1.986738 9.631778
vt 0.1033439 5.188832
vt 2.035259 2.732056
vt 0.7132502 2.349373
vt -2.035259 2.732056
vt -0.7132502 2.349373
vt 2 -1
vt 1 -1
vt -2 -1
vt -1 -1

vn 0 -1 0
vn 1.192077E-07 0.005112697 -0.9999871
vn -1.187748E-07 -0.08530098 0.9963554
vn 1.192091E-07 0.001781298 -0.9999985
vn -1.145657E-07 -0.2763854 0.961047
vn 2.046012E-08 0.9851611 -0.1716319
vn -6.025084E-08 -0.8628731 0.5054207
vn 2.167885E-08 0.9833253 -0.1818554
vn -5.001036E-08 -0.9077473 0.4195174
vn -1.086142E-07 0.9832569 0.1822245
vn 5.001025E-08 -0.9077478 -0.4195164
vn -2.2087E-08 0.9826859 0.1852792
vn 6.025096E-08 -0.8628725 -0.5054218
vn -1.192063E-07 0.007032197 0.9999754
vn 1.145657E-07 -0.2763854 -0.961047
vn -1.19204E-07 -0.009447251 0.9999555
vn 1.187748E-07 -0.08530095 -0.9963554
vn -1 0 -1.192093E-07
vn 1 0 1.192093E-07

usemtl ProBuilderDefault
f 3/3/1 4/4/1 2/2/1 1/1/1
f 1/7/2 6/8/2 5/6/2 3/5/2
f 8/11/3 2/12/3 4/10/3 7/9/3
f 6/15/4 10/16/4 9/14/4 5/13/4
f 12/19/5 8/20/5 7/18/5 11/17/5
f 10/23/6 14/24/6 13/22/6 9/21/6
f 16/27/7 12/28/7 11/26/7 15/25/7
f 14/31/8 18/32/8 17/30/8 13/29/8
f 20/35/9 16/36/9 15/34/9 19/33/9
f 18/39/10 22/40/10 21/38/10 17/37/10
f 24/43/11 20/44/11 19/42/11 23/41/11
f 22/47/12 26/48/12 25/46/12 21/45/12
f 28/51/13 24/52/13 23/50/13 27/49/13
f 26/55/14 30/56/14 29/54/14 25/53/14
f 32/59/15 28/60/15 27/58/15 31/57/15
f 30/63/16 34/64/16 33/62/16 29/61/16
f 36/67/17 32/68/17 31/66/17 35/65/17
f 35/71/1 33/72/1 34/70/1 36/69/1
f 2/75/18 8/76/18 6/74/18 1/73/18
f 7/79/19 4/80/19 3/78/19 5/77/19
f 8/76/18 12/82/18 10/81/18 6/74/18
f 11/84/19 7/79/19 5/77/19 9/83/19
f 12/82/18 16/86/18 14/85/18 10/81/18
f 15/88/19 11/84/19 9/83/19 13/87/19
f 16/86/18 20/90/18 18/89/18 14/85/18
f 19/92/19 15/88/19 13/87/19 17/91/19
f 20/90/18 24/94/18 22/93/18 18/89/18
f 23/96/19 19/92/19 17/91/19 21/95/19
f 24/94/18 28/98/18 26/97/18 22/93/18
f 27/100/19 23/96/19 21/95/19 25/99/19
f 28/98/18 32/102/18 30/101/18 26/97/18
f 31/104/19 27/100/19 25/99/19 29/103/19
f 32/102/18 36/106/18 34/105/18 30/101/18
f 35/108/19 31/104/19 29/103/19 33/107/19

g PolyShape
v -67.70209 5.271498 -0.4098913
v -67.70209 4.60568 -0.2228147
v -67.70209 2.425996 0.3967571
v -67.70209 -0.8946961 0.6921291
v -67.70208 -0.887885 -3.060191
v -67.70208 4.52388 -3.082282
v -67.70208 6.648378 -3.056448
v -67.70209 6.000524 -1.630324
v -66.71286 4.52388 -3.082281
v -66.71286 6.648378 -3.056448
v -66.71286 6.000524 -1.630324
v -66.71286 5.271498 -0.4098912
v -66.71286 4.60568 -0.2228146
v -66.71286 2.425996 0.3967572
v -66.71286 -0.8878849 -3.06019
v -66.71286 -0.894696 0.6921293

vt 0.3173943 -0.1914978
vt 0.1303177 0.47432
vt -0.489254 2.654004
vt -0.784626 5.974695
vt 2.967693 5.967884
vt 2.989784 0.55612
vt 2.963951 -1.568378
vt 1.537827 -0.9205242
vt -2.989784 0.55612
vt -2.963951 -1.568378
vt -1.537827 -0.9205242
vt -0.3173943 -0.1914978
vt -0.1303177 0.47432
vt 0.489254 2.654004
vt -2.967693 5.967884
vt 0.784626 5.974695
vt 0.5924309 6.178988E-08
vt -1.532224 -2.362333E-07
vt 0.5924308 0.9892235
vt -1.532225 0.9892232
vt 3.347236 -2.162496E-07
vt 1.780856 -9.704029E-08
vt 3.347236 0.9892232
vt 1.780856 0.9892234
vt 1.792282 -1.191248E-07
vt 0.3706857 -2.971785E-08
vt 1.792282 0.9892234
vt 0.3706857 0.9892235
vt 0.2702134 -3.600627E-08
vt -0.4213869 5.34007E-08
vt 0.2702135 0.9892235
vt -0.4213868 0.9892235
vt -0.4206152 5.699758E-08
vt -2.686645 2.358115E-07
vt -0.4206151 0.9892235
vt -2.686645 0.9892237
vt 5.95572 4.768372E-07
vt 0.5439111 5.960464E-08
vt 5.95572 0.989224
vt 0.543911 0.9892235
vt -6.020716 4.768372E-07
vt -6.020716 0.989224
vt 0.7954698 4.768372E-07
vt -2.956856 4.768372E-07
vt 0.7954698 0.989224
vt -2.956856 0.989224

vn -1 -6.409395E-09 -1.284619E-07
vn 1 8.439565E-09 1.254881E-07
vn 1.184837E-07 0.01215874 -0.9999262
vn -4.812251E-08 0.910459 0.4135996
vn -1.11746E-07 0.8584948 0.5128227
vn -1.225632E-07 0.2704981 0.9627206
vn -1.370386E-07 0.2734173 0.9618956
vn 1.196949E-07 -0.004081983 -0.9999918
vn -1.293023E-07 0.08859915 0.9960675
vn 1.194255E-07 -0.9999985 -0.001815179

usemtl ProBuilderDefault
f 44/116/20 43/115/20 42/114/20
f 42/114/20 37/109/20 44/116/20
f 42/114/20 38/110/20 37/109/20
f 42/114/20 39/111/20 38/110/20
f 41/113/20 39/111/20 42/114/20
f 40/112/20 39/111/20 41/113/20
f 51/123/21 50/122/21 52/124/21
f 45/117/21 50/122/21 51/123/21
f 49/121/21 50/122/21 45/117/21
f 48/120/21 49/121/21 45/117/21
f 47/119/21 48/120/21 45/117/21
f 45/117/21 46/118/21 47/119/21
f 43/128/22 46/126/22 45/125/22
f 45/125/22 42/127/22 43/128/22
f 44/132/23 47/130/23 46/129/23
f 46/129/23 43/131/23 44/132/23
f 37/136/24 48/134/24 47/133/24
f 47/133/24 44/135/24 37/136/24
f 38/140/25 49/138/25 48/137/25
f 48/137/25 37/139/25 38/140/25
f 39/144/26 50/142/26 49/141/26
f 49/141/26 38/143/26 39/144/26
f 42/148/27 45/146/27 51/145/27
f 51/145/27 41/147/27 42/148/27
f 40/150/28 52/149/28 50/142/28
f 50/142/28 39/144/28 40/150/28
f 41/154/29 51/152/29 52/151/29
f 52/151/29 40/153/29 41/154/29

g PolyShape (1)
v -66.69466 5.253498 -5.721107
v -66.69466 4.58768 -5.908183
v -66.69466 2.407996 -6.527755
v -66.69466 -0.9126962 -6.823127
v -66.69466 -0.8802556 -3.09641
v -66.69466 4.523844 -3.103635
v -66.69467 6.630378 -3.074548
v -66.69467 5.982524 -4.500674
v -67.68389 6.630378 -3.074549
v -67.68389 5.982524 -4.500674
v -67.68389 4.523844 -3.103635
v -67.68389 5.253498 -5.721107
v -67.68389 4.58768 -5.908183
v -67.68389 2.407996 -6.527755
v -67.68389 -0.8802555 -3.09641
v -67.68389 -0.9126961 -6.823127

vt 0.3173943 -0.1914978
vt 0.1303177 0.47432
vt -0.489254 2.654004
vt -0.784626 5.974695
vt 2.94209 5.942255
vt 2.934865 0.5381561
vt 2.963951 -1.568378
vt 1.537827 -0.9205242
vt -2.963951 -1.568378
vt -1.537827 -0.9205242
vt -2.934865 0.5381561
vt -0.3173943 -0.1914978
vt -0.1303177 0.47432
vt 0.489254 2.654004
vt -2.94209 5.942255
vt 0.784626 5.974695
vt 3.347236 -2.162496E-07
vt 1.780856 -9.704029E-08
vt 3.347236 0.9892232
vt 1.780856 0.9892234
vt 0.4975847 5.71572E-08
vt -1.60915 -2.40866E-07
vt 0.4975846 0.9892235
vt -1.609151 0.9892232
vt 1.792282 -1.191248E-07
vt 0.3706857 -2.971785E-08
vt 1.792282 0.9892234
vt 0.3706857 0.9892235
vt 0.2702134 -3.600627E-08
vt -0.4213869 5.34007E-08
vt 0.2702135 0.9892235
vt -0.4213868 0.9892235
vt -0.4206152 5.699758E-08
vt -2.686645 2.358115E-07
vt -0.4206151 0.9892235
vt -2.686645 0.9892237
vt 5.946183 4.768372E-07
vt 0.5420794 5.960464E-08
vt 5.946183 0.989224
vt 0.5420793 0.9892235
vt -6.020716 4.768372E-07
vt -6.020716 0.989224
vt 0.8366034 4.768372E-07
vt -2.890253 4.768372E-07
vt 0.8366034 0.989224
vt -2.890253 0.989224

vn 1 -5.99232E-09 1.279982E-07
vn -1 -2.199788E-08 -1.38652E-07
vn -1.689478E-07 0.910459 -0.4135997
vn -1.167202E-07 -0.01380648 0.999905
vn -9.293503E-08 0.8584948 -0.5128228
vn 5.807149E-08 0.2704981 -0.9627209
vn 7.185081E-08 0.2734173 -0.9618959
vn -1.193686E-07 0.001336954 0.9999995
vn 1.081787E-07 0.08859915 -0.9960678
vn 1.181671E-07 -0.9999622 0.008704567

usemtl ProBuilderDefault
f 58/160/30 60/162/30 59/161/30
f 53/155/30 60/162/30 58/160/30
f 54/156/30 53/155/30 58/160/30
f 55/157/30 54/156/30 58/160/30
f 55/157/30 58/160/30 57/159/30
f 56/158/30 55/157/30 57/159/30
f 67/169/31 66/168/31 68/170/31
f 67/169/31 63/165/31 66/168/31
f 63/165/31 65/167/31 66/168/31
f 63/165/31 64/166/31 65/167/31
f 63/165/31 62/164/31 64/166/31
f 61/163/31 62/164/31 63/165/31
f 60/174/32 62/172/32 61/171/32
f 61/171/32 59/173/32 60/174/32
f 59/178/33 61/176/33 63/175/33
f 63/175/33 58/177/33 59/178/33
f 53/182/34 64/180/34 62/179/34
f 62/179/34 60/181/34 53/182/34
f 54/186/35 65/184/35 64/183/35
f 64/183/35 53/185/35 54/186/35
f 55/190/36 66/188/36 65/187/36
f 65/187/36 54/189/36 55/190/36
f 58/194/37 63/192/37 67/191/37
f 67/191/37 57/193/37 58/194/37
f 56/196/38 68/195/38 66/188/38
f 66/188/38 55/190/38 56/196/38
f 57/200/39 67/198/39 68/197/39
f 68/197/39 56/199/39 57/200/39

